<svg xmlns="http://www.w3.org/2000/svg" xml:space="preserve" id="logo" width="41.06" height="29.54" viewBox="0 0 410.6 295.4">
  <style>
    .logofill{fill:#a8996e}
  </style>
  <path d="M53.9 147c27.3 0 53.9 19.8 53.9 46.2 0 23.2-23.7 46.1-53.9 46.1-31.1 0-53.9-22.2-53.9-46.1C0 166.8 28.5 147 53.9 147m0 90.6c26.6 0 36.1-14.6 36.1-44.3 0-22.8-5.9-44.5-36.1-44.5s-36.1 21.7-36.1 44.5c0 29.6 9.5 44.3 36.1 44.3M200.4 237.4h-24.3v-12.5h-.3c-3.6 6.7-9.8 14.2-23.1 14.2-8 0-13-1.9-15.7-3.5-2.9-1.7-7.3-4.5-7.3-14.5V186h-11.6v-1.7h24.6v38c0 8.5 2.6 15.1 12.8 15.1 8.8 0 20.3-8.9 20.3-22.7V186h-11.5v-1.7h24.5v51.4h11.6zM247.1 148.1h24.2v87.6h11.4v1.7h-23.9v-10.8h-.3c-1.5 3.8-6.1 12.5-19.6 12.5-17.5 0-32.4-13.5-32.4-28.6 0-14.9 14.4-27.9 31.4-27.9 10.9 0 17.7 5.1 20.4 11.5h.3v-44.3h-11.4v-1.7zm-8.1 89.3c16.5 0 19.5-13.4 19.5-24.3 0-12.8-1-18.6-5.2-23-3-3.2-7.6-5.7-14.9-5.7-13.8 0-17.1 9.5-17.1 24.7 0 17.2 1.4 28.3 17.7 28.3M287.3 235.7h11.4V186h-11.4v-1.7h24.2v51.4H323v1.7h-35.7zm17.6-86.8c4.3 0 7.9 3 7.9 6.6s-3.6 6.6-7.9 6.6-7.9-3-7.9-6.6c0-3.7 3.6-6.6 7.9-6.6M327.2 235.7h11.4V186h-11.4v-1.7h23.9v13.3h.3c2.4-4.3 8.5-14.6 25.6-14.6 13.1 0 22.1 5.1 22.1 16.6v36.2h11.4v1.7h-35.7v-1.7h11.4v-40c0-6.4-3.6-11-11.3-11-12.8 0-23.6 9.9-23.6 23v28h11.4v1.7H327v-1.8zM129.7 293.9h6.9v-35.6h-6.9v-.7h11.7c1.2 0 2.3-.1 3.5-.1 1.1 0 2.3-.1 3.4-.1 9.5 0 16.5 4 16.5 9.9 0 6.2-8.2 9.8-17.3 9.8-1.1 0-3.3-.2-4.7-.4v17.2h6.9v.7h-20.1v-.7zm13.2-17.9c1.6.3 3.7.4 5.1.4 6.1 0 9.8-3 9.8-9.1 0-7.1-3.2-9.2-11.2-9.2-1.6 0-2.9.1-3.6.2V276zM194.9 294.1c-1.1.7-2.6 1.3-4.7 1.3-4 0-5.5-1.5-6.2-4.1h-.1c-.6 1.3-2.1 4.1-8.2 4.1-6.9 0-8-2.9-8-5 0-4.9 5.1-5.4 9.7-6.6 5.6-1.5 6.8-1.8 6.8-6 0-3.3-.7-5.4-4.8-5.4-2.7 0-4.7.8-4.7 2.5 0 1.2.4 2.4.4 3 0 .9-.9 1.7-2.4 1.7-2.7 0-3.1-.9-3.1-2.2 0-3.1 3.4-5.8 9.7-5.8 7.7 0 10.1 3.5 10.1 7.2v12.9c0 2 .8 2.5 2.2 2.5.9 0 2-.3 2.9-.8zM184 281.9h-.1c-.1.4-.8.9-2.1 1.4l-4.7 1.6c-2.6.9-4.1 2.5-4.1 4.9 0 2.1.7 4.6 4.6 4.6 5.6 0 6.4-4.4 6.4-7.2zM199.9 293.9h4.8V273h-4.8v-.7h10v5.3h.1c.7-2 2.9-5.8 8.2-5.8 3.9 0 5.6 2.2 5.6 4.3 0 2.3-1.5 2.9-3.1 2.9-1.8 0-2.7-.6-2.7-1.5 0-1.2.8-1.2.8-3 0-1-.8-1.7-2.2-1.7-2.6 0-6.5 3.4-6.5 9.2v11.9h5.4v.7h-15.6zM228.4 293.9h4.8V273h-4.8v-.7h10.2v21.6h4.8v.7h-15zm7.4-36.4c1.8 0 3.3 1.2 3.3 2.8 0 1.5-1.5 2.8-3.3 2.8s-3.3-1.2-3.3-2.8 1.5-2.8 3.3-2.8M251.8 287.4h.7c1.1 3.3 3.6 7.3 9.9 7.3 2.7 0 5.1-1.3 5.1-4.3 0-2.7-1.9-3.4-4.1-4.1l-4.9-1.4c-2.6-.7-6.2-1.8-6.2-6.3 0-3.9 3.8-6.9 9-6.9 3.6 0 4.2 1.1 6 1.1.6 0 .8-.2 1-.4h.7v5.9h-.7c-1.2-3.1-2.7-5.9-7-5.9-4 0-6.3 1.6-6.3 4.1 0 2.2 1.9 3.2 5.6 4.1l4.6 1.2c3.9 1.1 6.7 3 6.7 6.1 0 3.8-3.6 7.4-9.9 7.4-3.7 0-6.1-1.5-7.9-1.5-.9 0-1.2.4-1.5.7h-.7v-7.1zM149.4 169.8h-.5c-.3-.3-.6-.6-1.5-.6-1.3 0-3.1 1.1-6.1 1.1-2.8 0-5.5-.9-7.8-2.9-2.1-2-3.8-4.6-3.8-8.1 0-6 5.1-11.3 11.8-11.3 2.7 0 4.1 1.2 5.4 1.2.9 0 1.2-.3 1.5-.6h.5v6h-.4c-.8-3.1-2.2-6.1-7.3-6.1-7 0-7.7 6.4-7.7 10.9 0 8.4 3.1 10.7 7.7 10.7 5.9 0 6.9-3.4 7.8-6.4h.4zM151.9 169.3h2.5v-20.8h-2.5v-.4h5.4v11.8h.1c.5-1.1 2-3.4 5.6-3.4 2.9 0 4.9 1.2 4.9 4v8.8h2.5v.4h-7.9v-.4h2.5v-9.7c0-1.6-.8-2.7-2.5-2.7-2.8 0-5.3 2.4-5.3 5.6v6.8h2.5v.4h-7.9v-.4zM187 169.4c-.6.4-1.4.8-2.5.8-2.1 0-2.9-.9-3.3-2.3h-.1c-.3.8-1.1 2.3-4.4 2.3-3.7 0-4.3-1.7-4.3-2.9 0-2.8 2.7-3.1 5.2-3.8 2.9-.9 3.6-1.1 3.6-3.5 0-1.9-.4-3.1-2.5-3.1-1.5 0-2.5.5-2.5 1.5 0 .7.2 1.4.2 1.7 0 .5-.5 1-1.3 1-1.5 0-1.6-.5-1.6-1.3 0-1.8 1.8-3.3 5.2-3.3 4.1 0 5.4 2 5.4 4.1v7.5c0 1.1.4 1.5 1.2 1.5.5 0 1.1-.2 1.5-.5zm-5.7-7c-.1.2-.5.5-1.2.8l-2.5.9c-1.4.5-2.2 1.4-2.2 2.9 0 1.2.4 2.6 2.4 2.6 2.9 0 3.4-2.6 3.4-4.2v-3zM188 169.3h2.5v-12H188v-.4h5.3v3h.1c.4-1.2 1.6-3.4 4.3-3.4 2 0 2.9 1.3 2.9 2.5 0 1.3-.8 1.7-1.7 1.7-1 0-1.5-.3-1.5-.8 0-.7.4-.7.4-1.7 0-.6-.4-1-1.2-1-1.4 0-3.4 2-3.4 5.3v6.9h2.9v.4H188zM201.5 169.3h2.5v-20.8h-2.5v-.4h5.4v21.2h2.5v.4h-7.9zM215.2 162.3v1.4c0 2.7.5 6 4.4 6s4.8-2.4 5.1-3.4l.5.1c-.3.9-1.2 3.7-5.6 3.7s-7.6-2.7-7.6-6.8c0-3.5 3.3-6.9 7.4-6.9 2.4 0 6.1 1.4 6.1 5.8h-10.3zm6.8-.4c.1-.6.1-1 .1-1.5 0-2.7-1.2-3.5-2.9-3.5-3 0-3.7 2.4-3.9 5z"/>
  <path d="M228.8 165.6h.4c.6 1.9 1.9 4.2 5.2 4.2 1.4 0 2.7-.8 2.7-2.5 0-1.5-1-2-2.1-2.3l-2.6-.8c-1.4-.4-3.3-1-3.3-3.7 0-2.3 2-4 4.8-4 1.9 0 2.2.6 3.2.6.3 0 .4-.1.5-.2h.4v3.4h-.4c-.6-1.8-1.5-3.4-3.7-3.4-2.1 0-3.3.9-3.3 2.4 0 1.3 1 1.8 2.9 2.4l2.4.7c2 .6 3.5 1.7 3.5 3.5 0 2.2-1.9 4.3-5.3 4.3-2 0-3.2-.8-4.2-.8-.5 0-.7.2-.8.4h-.4v-4.2z"/>
  <path d="M200.8 90.8c26.7 0 36.2-14.7 36.2-44.5 0-22.9-5.9-44.6-36.2-44.6s-36.2 21.7-36.2 44.6c0 29.9 9.5 44.5 36.2 44.5m0-90.8c27.3 0 54 19.9 54 46.3 0 23.2-23.8 46.2-54 46.2-31.2 0-54-22.2-54-46.2 0-26.4 28.6-46.3 54-46.3" class="logofill"/>
  <path d="M210.1 29.9c.9 1.4 1.6 3 2.2 4.8 1.1 2.5 1.6 5.7 1.7 8.9h-23.7c.1-3.3.6-6.4 1.7-8.9.6-1.7 1.3-3.3 2.1-4.6-5.4 2.9-9.7 8.5-9.7 15.3 0 6.6 4 12.9 10.3 15.7q-1.05-1.5-1.8-3.3c-1.8-2.7-2.6-6.8-2.6-12.2h23.8c0 5.4-.8 9.5-2.6 12.2-.5 1.1-1.1 2.2-1.7 3.1 6-3 10.2-9.2 10.2-15.6 0-6.9-4.3-12.6-9.9-15.4" class="logofill"/>
  <path d="M223.8 52.8c-1.4 14.4-7.8 21.6-22.3 21.6-16.7 0-22.6-9.4-22.6-28.6 0-14.7 3.7-28.6 22.6-28.6 16.1 0 21.2 10.1 22.3 22.1h10.6c-3.6-13.6-18.1-23.2-33-23.2-15.9 0-33.8 12.8-33.8 29.7 0 15.4 14.3 29.7 33.8 29.7 16 0 29-10.5 32.7-22.7z" class="logofill"/>
</svg>