<svg xmlns="http://www.w3.org/2000/svg" xml:space="preserve" viewBox="0 0 314.9 97.9">
  <path d="M.8.6h5.8V97H.8zM104.6 9.1c-3.4 5.2-3.6 11.2-3.6 12.3v75.8h6.1V41.8h11.6V36h-11.6V20.6c.6-11.6 10.1-14.2 15.6-14h.1l1.2-.1V.7h-1.5c-8.3 0-14.2 2.7-17.9 8.4M162.9 34.3c-17.9.1-32 14.2-32 32 0 17.5 14.4 31.7 32 31.8h.2c8.7 0 16.7-3.3 22.8-9.3 6-6 9.3-14 9.4-22.5 0-8.6-3.2-16.6-9.3-22.6-6.1-6.1-14.3-9.5-23.1-9.4m.1 57.9c-16.2-.2-26.2-13.6-26.3-25.9 0-14.4 11.4-25.8 26.1-26.2h.7c6.6 0 13.1 2.7 18 7.6 5 5 7.8 11.6 7.8 18.6 0 6.9-2.7 13.4-7.6 18.3-5.1 4.9-11.9 7.7-18.7 7.6M53 34.3c-17.6 0-31.9 14.3-31.9 31.9C21.1 83.7 35.4 98 53 98c11 0 20.7-4.9 26.5-13.1v12.2h6V65.8c-.2-18-14.2-31.5-32.5-31.5m26.5 31.1v1.3C79.3 80.9 67.8 92 53.3 92.2h-.4c-14.1 0-25.9-11.9-25.9-26 0-16.1 13.5-26.1 26-26.1 14.6 0 26.1 11.1 26.5 25.3M231.7 35.2c-6.4 0-12.4 2.4-16.6 6.7V36l-6 .1.1 61.2h5.8V56.4c.4-8.8 7.9-15.5 17-15.3 8.8.2 15.7 6.7 16.1 15.1l.1 9.4v31.7h6.1V56.4c.1-11.7-10.1-21.2-22.6-21.2M310.3 89.3c-2.2 0-4 1.8-4 4.1 0 2.2 1.8 4.1 4 4.1s4-1.8 4-4.1c-.1-2.2-1.8-4.1-4-4.1M275.3 79.6V41.9h11.4V36h-11.4V14.3l-6.2-.1v63.1c0 3.2 1 8.3 4 11.8 3.2 3.9 7.4 8 17.2 8h1.7v-5.8h-1.8c-4.4.4-13.2-1.6-14.9-11.7"/>
</svg>