<?xml version="1.0" standalone="no"?>
<!DOCTYPE svg PUBLIC "-//W3C//DTD SVG 20010904//EN"
 "http://www.w3.org/TR/2001/REC-SVG-20010904/DTD/svg10.dtd">
<svg version="1.0" xmlns="http://www.w3.org/2000/svg"
 width="700.000000pt" height="700.000000pt" viewBox="0 0 700.000000 700.000000"
 preserveAspectRatio="xMidYMid meet">
<metadata>
Created by potrace 1.14, written by Peter Selinger 2001-2017
</metadata>
<g transform="translate(0.000000,700.000000) scale(0.100000,-0.100000)"
fill="#000000" stroke="none">
<path d="M1091 3505 c-1 -2290 0 -2425 17 -2426 84 -4 494 0 499 5 4 4 7 873
7 1931 0 1059 3 1925 6 1925 4 0 16 -12 26 -26 10 -14 37 -49 60 -78 22 -28
135 -172 249 -321 115 -148 256 -331 314 -406 58 -75 187 -242 286 -370 99
-128 261 -337 360 -465 99 -128 270 -350 380 -493 110 -143 202 -260 205 -260
3 0 57 68 120 151 63 82 140 182 171 222 66 85 365 471 396 512 27 36 346 448
379 489 20 26 79 102 340 440 110 143 434 561 457 589 l23 30 0 -1928 c-1
-1060 2 -1933 5 -1938 6 -9 347 -15 496 -9 l22 1 0 2425 0 2425 -213 0 -214 0
-84 -107 c-46 -60 -113 -146 -149 -193 -35 -47 -66 -87 -69 -90 -3 -3 -73 -93
-156 -200 -378 -490 -529 -685 -534 -690 -3 -3 -25 -32 -49 -65 -25 -33 -47
-62 -50 -65 -3 -3 -35 -43 -71 -90 -53 -70 -286 -372 -375 -485 -12 -16 -118
-153 -235 -303 l-211 -273 -62 81 c-55 72 -423 549 -444 575 -5 6 -78 100
-163 210 -85 110 -202 261 -260 336 -58 75 -116 150 -129 167 -44 58 -322 417
-334 432 -7 8 -41 53 -77 100 -36 46 -70 91 -77 100 -7 8 -56 72 -110 142 -54
69 -149 192 -211 272 l-113 146 -214 0 -214 0 0 -2425z"/>
</g>
</svg>
